<svg width="69" height="74" viewBox="0 0 69 74" fill="none" xmlns="http://www.w3.org/2000/svg">
    <defs>
        <filter id="filter0_ii" x="0.129431" y="-0.537195" width="69.0744" height="69.0744" filterUnits="userSpaceOnUse"
            color-interpolation-filters="sRGB">
            <feFlood flood-opacity="0" result="BackgroundImageFix" />
            <feBlend mode="normal" in="SourceGraphic" in2="BackgroundImageFix" result="shape" />
            <feColorMatrix in="SourceAlpha" type="matrix" values="0 0 0 0 0 0 0 0 0 0 0 0 0 0 0 0 0 0 127 0"
                result="hardAlpha" />
            <feOffset dx="0.537195" dy="0.537195" />
            <feGaussianBlur stdDeviation="0.268597" />
            <feComposite in2="hardAlpha" operator="arithmetic" k2="-1" k3="1" />
            <feColorMatrix type="matrix" values="0 0 0 0 1 0 0 0 0 1 0 0 0 0 1 0 0 0 0.2 0" />
            <feBlend mode="normal" in2="shape" result="effect1_innerShadow" />
            <feColorMatrix in="SourceAlpha" type="matrix" values="0 0 0 0 0 0 0 0 0 0 0 0 0 0 0 0 0 0 127 0"
                result="hardAlpha" />
            <feOffset dx="-0.537195" dy="-0.537195" />
            <feGaussianBlur stdDeviation="0.268597" />
            <feComposite in2="hardAlpha" operator="arithmetic" k2="-1" k3="1" />
            <feColorMatrix type="matrix" values="0 0 0 0 0 0 0 0 0 0 0 0 0 0 0 0 0 0 0.05 0" />
            <feBlend mode="normal" in2="effect1_innerShadow" result="effect2_innerShadow" />
        </filter>
        <filter id="filter1_dii" x="2.42914" y="8.84513" width="64.5005" height="64.4959" filterUnits="userSpaceOnUse"
            color-interpolation-filters="sRGB">
            <feFlood flood-opacity="0" result="BackgroundImageFix" />
            <feColorMatrix in="SourceAlpha" type="matrix" values="0 0 0 0 0 0 0 0 0 0 0 0 0 0 0 0 0 0 127 0"
                result="hardAlpha" />
            <feOffset dy="7.09097" />
            <feGaussianBlur stdDeviation="6.50006" />
            <feColorMatrix type="matrix" values="0 0 0 0 0.816667 0 0 0 0 0.172112 0 0 0 0 0.030625 0 0 0 0.25 0" />
            <feBlend mode="normal" in2="BackgroundImageFix" result="effect1_dropShadow" />
            <feBlend mode="normal" in="SourceGraphic" in2="effect1_dropShadow" result="shape" />
            <feColorMatrix in="SourceAlpha" type="matrix" values="0 0 0 0 0 0 0 0 0 0 0 0 0 0 0 0 0 0 127 0"
                result="hardAlpha" />
            <feOffset dy="-4.72732" />
            <feGaussianBlur stdDeviation="2.95457" />
            <feComposite in2="hardAlpha" operator="arithmetic" k2="-1" k3="1" />
            <feColorMatrix type="matrix" values="0 0 0 0 1 0 0 0 0 0.78 0 0 0 0 0 0 0 0 0.29 0" />
            <feBlend mode="normal" in2="shape" result="effect2_innerShadow" />
            <feColorMatrix in="SourceAlpha" type="matrix" values="0 0 0 0 0 0 0 0 0 0 0 0 0 0 0 0 0 0 127 0"
                result="hardAlpha" />
            <feOffset dy="-1.77274" />
            <feGaussianBlur stdDeviation="1.18183" />
            <feComposite in2="hardAlpha" operator="arithmetic" k2="-1" k3="1" />
            <feColorMatrix type="matrix" values="0 0 0 0 1 0 0 0 0 1 0 0 0 0 1 0 0 0 0.75 0" />
            <feBlend mode="normal" in2="effect2_innerShadow" result="effect3_innerShadow" />
        </filter>
        <filter id="filter2_dii" x="26.4239" y="28.9078" width="26.2343" height="16.6308" filterUnits="userSpaceOnUse"
            color-interpolation-filters="sRGB">
            <feFlood flood-opacity="0" result="BackgroundImageFix" />
            <feColorMatrix in="SourceAlpha" type="matrix" values="0 0 0 0 0 0 0 0 0 0 0 0 0 0 0 0 0 0 127 0"
                result="hardAlpha" />
            <feOffset dy="3.22317" />
            <feGaussianBlur stdDeviation="2.95457" />
            <feColorMatrix type="matrix" values="0 0 0 0 0.8625 0 0 0 0 0 0 0 0 0 0 0 0 0 0.25 0" />
            <feBlend mode="normal" in2="BackgroundImageFix" result="effect1_dropShadow" />
            <feBlend mode="normal" in="SourceGraphic" in2="effect1_dropShadow" result="shape" />
            <feColorMatrix in="SourceAlpha" type="matrix" values="0 0 0 0 0 0 0 0 0 0 0 0 0 0 0 0 0 0 127 0"
                result="hardAlpha" />
            <feOffset dy="-2.14878" />
            <feGaussianBlur stdDeviation="1.34299" />
            <feComposite in2="hardAlpha" operator="arithmetic" k2="-1" k3="1" />
            <feColorMatrix type="matrix" values="0 0 0 0 0.925 0 0 0 0 0.320667 0 0 0 0 0.0616667 0 0 0 0.29 0" />
            <feBlend mode="normal" in2="shape" result="effect2_innerShadow" />
            <feColorMatrix in="SourceAlpha" type="matrix" values="0 0 0 0 0 0 0 0 0 0 0 0 0 0 0 0 0 0 127 0"
                result="hardAlpha" />
            <feOffset dy="-0.805792" />
            <feGaussianBlur stdDeviation="0.537195" />
            <feComposite in2="hardAlpha" operator="arithmetic" k2="-1" k3="1" />
            <feColorMatrix type="matrix" values="0 0 0 0 1 0 0 0 0 1 0 0 0 0 1 0 0 0 0.75 0" />
            <feBlend mode="normal" in2="effect2_innerShadow" result="effect3_innerShadow" />
        </filter>
        <filter id="filter3_dii" x="16.6791" y="28.9078" width="16.4933" height="16.6308" filterUnits="userSpaceOnUse"
            color-interpolation-filters="sRGB">
            <feFlood flood-opacity="0" result="BackgroundImageFix" />
            <feColorMatrix in="SourceAlpha" type="matrix" values="0 0 0 0 0 0 0 0 0 0 0 0 0 0 0 0 0 0 127 0"
                result="hardAlpha" />
            <feOffset dy="3.22317" />
            <feGaussianBlur stdDeviation="2.95457" />
            <feColorMatrix type="matrix" values="0 0 0 0 0.8625 0 0 0 0 0 0 0 0 0 0 0 0 0 0.25 0" />
            <feBlend mode="normal" in2="BackgroundImageFix" result="effect1_dropShadow" />
            <feBlend mode="normal" in="SourceGraphic" in2="effect1_dropShadow" result="shape" />
            <feColorMatrix in="SourceAlpha" type="matrix" values="0 0 0 0 0 0 0 0 0 0 0 0 0 0 0 0 0 0 127 0"
                result="hardAlpha" />
            <feOffset dy="-2.14878" />
            <feGaussianBlur stdDeviation="1.34299" />
            <feComposite in2="hardAlpha" operator="arithmetic" k2="-1" k3="1" />
            <feColorMatrix type="matrix" values="0 0 0 0 0.925 0 0 0 0 0.320667 0 0 0 0 0.0616667 0 0 0 0.29 0" />
            <feBlend mode="normal" in2="shape" result="effect2_innerShadow" />
            <feColorMatrix in="SourceAlpha" type="matrix" values="0 0 0 0 0 0 0 0 0 0 0 0 0 0 0 0 0 0 127 0"
                result="hardAlpha" />
            <feOffset dy="-0.805792" />
            <feGaussianBlur stdDeviation="0.537195" />
            <feComposite in2="hardAlpha" operator="arithmetic" k2="-1" k3="1" />
            <feColorMatrix type="matrix" values="0 0 0 0 1 0 0 0 0 1 0 0 0 0 1 0 0 0 0.75 0" />
            <feBlend mode="normal" in2="effect2_innerShadow" result="effect3_innerShadow" />
        </filter>
        <linearGradient id="paint0_linear" x1="34.6666" y1="0" x2="34.6666" y2="68" gradientUnits="userSpaceOnUse">
            <stop stop-color="#FADB7E" />
            <stop offset="1" stop-color="#FADB7E" />
        </linearGradient>
        <linearGradient id="paint1_linear" x1="34.6666" y1="0" x2="34.6666" y2="68" gradientUnits="userSpaceOnUse">
            <stop offset="0.328125" stop-color="white" />
            <stop offset="1" stop-opacity="0.1" />
        </linearGradient>
    </defs>
    <g filter="url(#filter0_ii)">
        <rect x="0.666626" width="68" height="68" rx="14.9638" fill="url(#paint0_linear)" />
        <rect x="0.666626" width="68" height="68" rx="14.9638" fill="url(#paint1_linear)" fill-opacity="0.2"
            style="mix-blend-mode:soft-light" />
    </g>
    <g filter="url(#filter1_dii)">
        <path
            d="M48.2834 20.3875C50.058 22.1664 51.4502 24.2375 52.4213 26.5449C53.4225 28.934 53.9295 31.4734 53.9295 34.0859C53.9166 36.6898 53.401 39.2121 52.3869 41.584C51.4115 43.8742 50.0151 45.9281 48.2404 47.6855C46.4701 49.4429 44.4033 50.8179 42.1045 51.7761C39.7541 52.7515 37.2576 53.25 34.6838 53.25H34.5936C32.6621 53.2416 30.7414 52.9403 28.9106 52.3669C26.9404 51.7499 24.9284 51.1875 22.8639 51.1875H19.4686C18.3772 51.1875 17.492 50.3023 17.492 49.2109V45.8153C17.492 43.7537 16.9313 41.7444 16.3147 39.7772C15.7399 37.9435 15.4379 36.0213 15.4295 34.0902C15.4166 31.4906 15.9151 28.9597 16.9033 26.5793C17.8529 24.2804 19.2365 22.2179 20.9897 20.4433C22.7471 18.6687 24.801 17.2765 27.0912 16.2969C29.4631 15.2828 31.9854 14.7672 34.5893 14.7543H34.6752C37.2576 14.7543 39.767 15.257 42.1303 16.2496C44.4377 17.2164 46.5088 18.6129 48.2834 20.3875Z"
            fill="white" />
    </g>
    <g filter="url(#filter2_dii)">
        <path
            d="M44.4115 36.4062C43.1182 36.4062 42.074 35.332 42.074 34C42.074 32.668 43.1182 31.5938 44.4115 31.5938C45.7049 31.5938 46.749 32.668 46.749 34C46.7533 35.332 45.7049 36.4062 44.4115 36.4062ZM34.6705 36.4062C33.3771 36.4062 32.333 35.332 32.333 34C32.333 32.668 33.3771 31.5938 34.6705 31.5938C35.9639 31.5938 37.008 32.668 37.008 34C37.0037 35.332 35.9596 36.4062 34.6705 36.4062Z"
            fill="#FFA9A9" />
    </g>
    <g filter="url(#filter3_dii)">
        <path
            d="M22.5883 34C22.5883 34.316 22.6487 34.6289 22.7662 34.9208C22.8837 35.2128 23.0558 35.478 23.2729 35.7015C23.49 35.9249 23.7476 36.1022 24.0312 36.2231C24.3148 36.344 24.6188 36.4062 24.9258 36.4062C25.2327 36.4062 25.5367 36.344 25.8203 36.2231C26.1039 36.1022 26.3616 35.9249 26.5786 35.7015C26.7957 35.478 26.9679 35.2128 27.0853 34.9208C27.2028 34.6289 27.2633 34.316 27.2633 34C27.2633 33.3618 27.017 32.7498 26.5786 32.2985C26.1403 31.8473 25.5457 31.5938 24.9258 31.5938C24.3058 31.5938 23.7113 31.8473 23.2729 32.2985C22.8345 32.7498 22.5883 33.3618 22.5883 34Z"
            fill="#FFA9A9" />
    </g>
</svg>
