<svg width="20" height="20" viewBox="0 0 20 20" fill="none" xmlns="http://www.w3.org/2000/svg">
    <path
        d="M4.16675 15H7.70008C7.80975 15.0007 7.91847 14.9796 8.02 14.9382C8.12153 14.8967 8.21388 14.8356 8.29175 14.7584L14.0584 8.98336L16.4251 6.6667C16.5032 6.58923 16.5652 6.49706 16.6075 6.39551C16.6498 6.29396 16.6716 6.18504 16.6716 6.07503C16.6716 5.96502 16.6498 5.8561 16.6075 5.75455C16.5652 5.653 16.5032 5.56083 16.4251 5.48336L12.8917 1.90836C12.8143 1.83026 12.7221 1.76826 12.6206 1.72595C12.519 1.68365 12.4101 1.66187 12.3001 1.66187C12.1901 1.66187 12.0812 1.68365 11.9796 1.72595C11.8781 1.76826 11.7859 1.83026 11.7084 1.90836L9.35841 4.2667L3.57508 10.0417C3.49785 10.1196 3.43674 10.2119 3.39527 10.3134C3.3538 10.415 3.33278 10.5237 3.33341 10.6334V14.1667C3.33341 14.3877 3.42121 14.5997 3.57749 14.756C3.73377 14.9122 3.94573 15 4.16675 15ZM12.3001 3.67503L14.6584 6.03336L13.4751 7.2167L11.1167 4.85836L12.3001 3.67503ZM5.00008 10.975L9.94175 6.03336L12.3001 8.3917L7.35841 13.3334H5.00008V10.975ZM17.5001 16.6667H2.50008C2.27907 16.6667 2.06711 16.7545 1.91083 16.9108C1.75455 17.0671 1.66675 17.279 1.66675 17.5C1.66675 17.721 1.75455 17.933 1.91083 18.0893C2.06711 18.2456 2.27907 18.3334 2.50008 18.3334H17.5001C17.7211 18.3334 17.9331 18.2456 18.0893 18.0893C18.2456 17.933 18.3334 17.721 18.3334 17.5C18.3334 17.279 18.2456 17.0671 18.0893 16.9108C17.9331 16.7545 17.7211 16.6667 17.5001 16.6667Z"
        fill="#20B149" />
</svg>
