<svg width="16" height="18" viewBox="0 0 16 18" fill="none" xmlns="http://www.w3.org/2000/svg">
    <path
        d="M12.6667 8.33337H3.33333C2.59695 8.33337 2 8.93033 2 9.66671V15C2 15.7364 2.59695 16.3334 3.33333 16.3334H12.6667C13.403 16.3334 14 15.7364 14 15V9.66671C14 8.93033 13.403 8.33337 12.6667 8.33337Z"
        stroke="#FFBB0D" stroke-width="1.5" stroke-miterlimit="10" stroke-linecap="square" />
    <path
        d="M8.00008 13.6667C8.73646 13.6667 9.33341 13.0697 9.33341 12.3333C9.33341 11.597 8.73646 11 8.00008 11C7.2637 11 6.66675 11.597 6.66675 12.3333C6.66675 13.0697 7.2637 13.6667 8.00008 13.6667Z"
        stroke="#FFBB0D" stroke-width="1.5" stroke-miterlimit="10" stroke-linecap="square" />
    <path
        d="M11.3334 8.33333V5C11.3421 4.12483 11.0029 3.28202 10.3903 2.65693C9.7777 2.03184 8.94192 1.67564 8.06675 1.66667H8.00008C7.12491 1.65796 6.2821 1.9972 5.65701 2.60979C5.03192 3.22238 4.67572 4.05816 4.66675 4.93333V8.33333"
        stroke="#FFBB0D" stroke-width="1.5" stroke-miterlimit="10" stroke-linecap="square" />
</svg>
