<svg width="24" height="25" viewBox="0 0 24 25" fill="none" xmlns="http://www.w3.org/2000/svg">
    <path
        d="M6.51196 18.059V14.942C6.51202 14.8521 6.53584 14.7639 6.581 14.6862C6.62616 14.6084 6.69105 14.544 6.76912 14.4995C6.84718 14.4549 6.93564 14.4318 7.02552 14.4324C7.11541 14.433 7.20353 14.4574 7.28096 14.503L9.91696 16.062C9.99302 16.1072 10.056 16.1714 10.0998 16.2483C10.1435 16.3251 10.1665 16.4121 10.1665 16.5005C10.1665 16.589 10.1435 16.6759 10.0998 16.7528C10.056 16.8297 9.99302 16.8939 9.91696 16.939L7.28096 18.498C7.20353 18.5437 7.11541 18.5681 7.02552 18.5687C6.93564 18.5693 6.84718 18.5462 6.76912 18.5016C6.69105 18.457 6.62616 18.3926 6.581 18.3149C6.53584 18.2372 6.51202 18.1489 6.51196 18.059V18.059Z"
        stroke="#20B149" stroke-width="1.5" stroke-linecap="round" stroke-linejoin="round" />
    <path
        d="M6 21.5H10C11.6569 21.5 13 20.1569 13 18.5V14.5C13 12.8431 11.6569 11.5 10 11.5H6C4.34315 11.5 3 12.8431 3 14.5V18.5C3 20.1569 4.34315 21.5 6 21.5Z"
        stroke="#20B149" stroke-width="1.5" stroke-linecap="round" stroke-linejoin="round" />
    <path d="M10 3.5H7C5.93913 3.5 4.92172 3.92143 4.17157 4.67157C3.42143 5.42172 3 6.43913 3 7.5V9.5" stroke="#20B149"
        stroke-width="1.5" stroke-linecap="round" stroke-linejoin="round" />
    <path d="M21 10.5V7.5C21 6.43913 20.5786 5.42172 19.8284 4.67157C19.0783 3.92143 18.0609 3.5 17 3.5H14"
        stroke="#20B149" stroke-width="1.5" stroke-linecap="round" stroke-linejoin="round" />
    <path d="M21 14.5V17.5C21 18.5609 20.5786 19.5783 19.8284 20.3284C19.0783 21.0786 18.0609 21.5 17 21.5H15"
        stroke="#20B149" stroke-width="1.5" stroke-linecap="round" stroke-linejoin="round" />
</svg>
