<svg width="24" height="25" viewBox="0 0 24 25" fill="none" xmlns="http://www.w3.org/2000/svg">
    <path d="M10 18.5H14" stroke="#20B149" stroke-width="1.5" stroke-linecap="round" stroke-linejoin="round" />
    <path
        d="M16.979 3.5H7.021C6.75578 3.5 6.50143 3.60536 6.31389 3.79289C6.12635 3.98043 6.021 4.23478 6.021 4.5V6.878C6.02097 7.29926 6.15396 7.70978 6.401 8.051L9.621 12.5L6.401 16.949C6.15396 17.2902 6.02097 17.7007 6.021 18.122V20.5C6.021 20.7652 6.12635 21.0196 6.31389 21.2071C6.50143 21.3946 6.75578 21.5 7.021 21.5H16.978C17.2432 21.5 17.4976 21.3946 17.6851 21.2071C17.8726 21.0196 17.978 20.7652 17.978 20.5V18.158C17.978 17.714 17.83 17.283 17.558 16.932L14.121 12.5L17.559 8.067C17.831 7.716 17.979 7.285 17.979 6.841V4.5C17.979 4.23478 17.8736 3.98043 17.6861 3.79289C17.4986 3.60536 17.2442 3.5 16.979 3.5V3.5Z"
        stroke="#20B149" stroke-width="1.5" stroke-linecap="round" stroke-linejoin="round" />
</svg>
