<svg width="24" height="25" viewBox="0 0 24 25" fill="none" xmlns="http://www.w3.org/2000/svg">
    <defs>
        <clipPath id="clip0_352:4474">
            <rect width="24" height="24" fill="white" transform="translate(0 0.5)" />
        </clipPath>
    </defs>
    <g clip-path="url(#clip0_352:4474)">
        <path
            d="M5.5 23.5L5.42537 22.7537L5.5 24.25V23.5ZM7.25 20.5V21H8.75V20.5H7.25ZM7.25 21C7.25 21.7753 6.84905 22.1833 6.38856 22.4366C6.14858 22.5686 5.90101 22.6501 5.70872 22.6982C5.6141 22.7218 5.5368 22.7364 5.48584 22.7448C5.46046 22.749 5.44192 22.7515 5.43139 22.7529C5.42613 22.7536 5.4229 22.754 5.42184 22.7541C5.42131 22.7541 5.42133 22.7541 5.42191 22.7541C5.4222 22.754 5.42264 22.754 5.42321 22.7539C5.4235 22.7539 5.42382 22.7539 5.42418 22.7538C5.42436 22.7538 5.42466 22.7538 5.42475 22.7538C5.42506 22.7538 5.42537 22.7537 5.5 23.5C5.57463 24.2463 5.57496 24.2462 5.57531 24.2462C5.57543 24.2462 5.57579 24.2462 5.57605 24.2461C5.57656 24.2461 5.57711 24.246 5.5777 24.246C5.57888 24.2458 5.58022 24.2457 5.58171 24.2455C5.5847 24.2452 5.5883 24.2448 5.5925 24.2443C5.6009 24.2434 5.61171 24.2421 5.62476 24.2404C5.65085 24.237 5.68603 24.232 5.72901 24.2249C5.81476 24.2109 5.93277 24.1883 6.07253 24.1534C6.34899 24.0843 6.72642 23.9627 7.11144 23.7509C7.90095 23.3167 8.75 22.4747 8.75 21H7.25ZM5.5 23.5C5.5 24.25 5.50006 24.25 5.50017 24.25C5.50028 24.25 5.50045 24.25 5.50068 24.25C5.5009 24.25 5.50118 24.25 5.50152 24.25C5.50186 24.25 5.50225 24.25 5.5027 24.25C5.50315 24.25 5.50365 24.25 5.50422 24.25C5.50478 24.25 5.50539 24.25 5.50606 24.25C5.50673 24.25 5.50746 24.25 5.50824 24.25C5.50902 24.25 5.50986 24.25 5.51075 24.25C5.51164 24.25 5.51259 24.25 5.51359 24.25C5.51459 24.25 5.51564 24.25 5.51675 24.25C5.51786 24.25 5.51902 24.25 5.52024 24.25C5.52146 24.25 5.52273 24.25 5.52406 24.25C5.52538 24.25 5.52676 24.25 5.5282 24.25C5.52963 24.25 5.53112 24.25 5.53266 24.25C5.5342 24.25 5.53579 24.25 5.53744 24.25C5.53909 24.25 5.54079 24.25 5.54254 24.25C5.5443 24.25 5.54611 24.25 5.54797 24.25C5.54983 24.25 5.55174 24.25 5.5537 24.25C5.55567 24.25 5.55769 24.25 5.55976 24.25C5.56183 24.25 5.56395 24.25 5.56612 24.25C5.5683 24.25 5.57053 24.25 5.57281 24.25C5.57508 24.25 5.57741 24.25 5.5798 24.25C5.58218 24.25 5.58461 24.25 5.5871 24.25C5.58959 24.25 5.59212 24.25 5.59471 24.25C5.5973 24.25 5.59994 24.25 5.60263 24.25C5.60532 24.25 5.60807 24.25 5.61086 24.25C5.61365 24.25 5.6165 24.25 5.61939 24.25C5.62228 24.25 5.62523 24.25 5.62823 24.25C5.63122 24.25 5.63427 24.25 5.63736 24.25C5.64046 24.25 5.64361 24.25 5.6468 24.25C5.65 24.25 5.65324 24.25 5.65654 24.25C5.65984 24.25 5.66318 24.25 5.66658 24.25C5.66997 24.25 5.67342 24.25 5.67691 24.25C5.68041 24.25 5.68395 24.25 5.68754 24.25C5.69114 24.25 5.69478 24.25 5.69847 24.25C5.70216 24.25 5.7059 24.25 5.70969 24.25C5.71348 24.25 5.71731 24.25 5.7212 24.25C5.72508 24.25 5.72902 24.25 5.733 24.25C5.73698 24.25 5.74101 24.25 5.74509 24.25C5.74917 24.25 5.75329 24.25 5.75747 24.25C5.76164 24.25 5.76586 24.25 5.77013 24.25C5.7744 24.25 5.77872 24.25 5.78308 24.25C5.78745 24.25 5.79186 24.25 5.79632 24.25C5.80077 24.25 5.80528 24.25 5.80983 24.25C5.81439 24.25 5.81899 24.25 5.82363 24.25C5.82828 24.25 5.83297 24.25 5.83771 24.25C5.84245 24.25 5.84724 24.25 5.85207 24.25C5.8569 24.25 5.86178 24.25 5.8667 24.25C5.87163 24.25 5.8766 24.25 5.88161 24.25C5.88663 24.25 5.89169 24.25 5.8968 24.25C5.90191 24.25 5.90706 24.25 5.91226 24.25C5.91746 24.25 5.9227 24.25 5.92799 24.25C5.93328 24.25 5.93861 24.25 5.94399 24.25C5.94937 24.25 5.9548 24.25 5.96026 24.25C5.96573 24.25 5.97125 24.25 5.9768 24.25C5.98236 24.25 5.98796 24.25 5.99361 24.25C5.99926 24.25 6.00495 24.25 6.01068 24.25C6.01642 24.25 6.0222 24.25 6.02802 24.25C6.03384 24.25 6.03971 24.25 6.04562 24.25C6.05153 24.25 6.05748 24.25 6.06348 24.25C6.06948 24.25 6.07552 24.25 6.0816 24.25C6.08769 24.25 6.09381 24.25 6.09998 24.25C6.10615 24.25 6.11237 24.25 6.11862 24.25C6.12488 24.25 6.13118 24.25 6.13752 24.25C6.14386 24.25 6.15024 24.25 6.15667 24.25C6.16309 24.25 6.16956 24.25 6.17607 24.25C6.18258 24.25 6.18913 24.25 6.19573 24.25C6.20232 24.25 6.20896 24.25 6.21563 24.25C6.22231 24.25 6.22903 24.25 6.23579 24.25C6.24255 24.25 6.24935 24.25 6.2562 24.25C6.26304 24.25 6.26992 24.25 6.27685 24.25C6.28377 24.25 6.29074 24.25 6.29775 24.25C6.30475 24.25 6.3118 24.25 6.31889 24.25C6.32598 24.25 6.33311 24.25 6.34028 24.25C6.34744 24.25 6.35465 24.25 6.3619 24.25C6.36915 24.25 6.37644 24.25 6.38377 24.25C6.3911 24.25 6.39847 24.25 6.40588 24.25C6.41329 24.25 6.42074 24.25 6.42822 24.25C6.43571 24.25 6.44324 24.25 6.45081 24.25C6.45837 24.25 6.46598 24.25 6.47362 24.25C6.48127 24.25 6.48895 24.25 6.49668 24.25C6.5044 24.25 6.51216 24.25 6.51996 24.25C6.52776 24.25 6.5356 24.25 6.54347 24.25C6.55135 24.25 6.55927 24.25 6.56722 24.25C6.57517 24.25 6.58316 24.25 6.59119 24.25C6.59922 24.25 6.60729 24.25 6.6154 24.25C6.6235 24.25 6.63164 24.25 6.63982 24.25C6.648 24.25 6.65622 24.25 6.66447 24.25C6.67273 24.25 6.68102 24.25 6.68935 24.25C6.69768 24.25 6.70605 24.25 6.71445 24.25C6.72285 24.25 6.73129 24.25 6.73977 24.25C6.74824 24.25 6.75676 24.25 6.7653 24.25C6.77385 24.25 6.78244 24.25 6.79106 24.25C6.79968 24.25 6.80834 24.25 6.81703 24.25C6.82573 24.25 6.83446 24.25 6.84322 24.25C6.85199 24.25 6.86079 24.25 6.86962 24.25C6.87846 24.25 6.88733 24.25 6.89624 24.25C6.90515 24.25 6.91409 24.25 6.92307 24.25C6.93204 24.25 6.94106 24.25 6.9501 24.25C6.95915 24.25 6.96823 24.25 6.97735 24.25C6.98647 24.25 6.99562 24.25 7.0048 24.25C7.01399 24.25 7.02321 24.25 7.03246 24.25C7.04172 24.25 7.05101 24.25 7.06033 24.25C7.06965 24.25 7.07901 24.25 7.0884 24.25C7.09779 24.25 7.10721 24.25 7.11667 24.25C7.12612 24.25 7.13561 24.25 7.14514 24.25C7.15466 24.25 7.16422 24.25 7.17381 24.25C7.1834 24.25 7.19302 24.25 7.20268 24.25C7.21234 24.25 7.22203 24.25 7.23175 24.25C7.24147 24.25 7.25122 24.25 7.26101 24.25C7.2708 24.25 7.28062 24.25 7.29047 24.25C7.30032 24.25 7.3102 24.25 7.32012 24.25C7.33003 24.25 7.33998 24.25 7.34996 24.25C7.35994 24.25 7.36995 24.25 7.37999 24.25C7.39003 24.25 7.40011 24.25 7.41021 24.25C7.42032 24.25 7.43045 24.25 7.44062 24.25C7.45079 24.25 7.46099 24.25 7.47122 24.25C7.48145 24.25 7.49171 24.25 7.502 24.25C7.51229 24.25 7.52261 24.25 7.53296 24.25C7.54332 24.25 7.5537 24.25 7.56411 24.25C7.57452 24.25 7.58497 24.25 7.59544 24.25C7.60591 24.25 7.61642 24.25 7.62695 24.25C7.63748 24.25 7.64804 24.25 7.65863 24.25C7.66923 24.25 7.67985 24.25 7.6905 24.25C7.70115 24.25 7.71183 24.25 7.72254 24.25C7.73325 24.25 7.74399 24.25 7.75475 24.25C7.76552 24.25 7.77632 24.25 7.78714 24.25C7.79797 24.25 7.80882 24.25 7.8197 24.25C7.83059 24.25 7.8415 24.25 7.85243 24.25C7.86337 24.25 7.87434 24.25 7.88533 24.25C7.89633 24.25 7.90735 24.25 7.9184 24.25C7.92945 24.25 7.94053 24.25 7.95164 24.25C7.96274 24.25 7.97388 24.25 7.98504 24.25C7.9962 24.25 8.00739 24.25 8.0186 24.25C8.02982 24.25 8.04106 24.25 8.05233 24.25C8.0636 24.25 8.0749 24.25 8.08622 24.25C8.09754 24.25 8.10889 24.25 8.12027 24.25C8.13164 24.25 8.14305 24.25 8.15448 24.25C8.16591 24.25 8.17736 24.25 8.18884 24.25C8.20032 24.25 8.21183 24.25 8.22336 24.25C8.2349 24.25 8.24645 24.25 8.25804 24.25C8.26962 24.25 8.28123 24.25 8.29287 24.25C8.3045 24.25 8.31617 24.25 8.32785 24.25C8.33954 24.25 8.35125 24.25 8.36298 24.25C8.37472 24.25 8.38648 24.25 8.39827 24.25C8.41005 24.25 8.42186 24.25 8.4337 24.25C8.44553 24.25 8.45739 24.25 8.46928 24.25C8.48116 24.25 8.49307 24.25 8.505 24.25C8.51693 24.25 8.52889 24.25 8.54087 24.25C8.55285 24.25 8.56485 24.25 8.57688 24.25C8.58891 24.25 8.60096 24.25 8.61303 24.25C8.62511 24.25 8.6372 24.25 8.64932 24.25C8.66144 24.25 8.67359 24.25 8.68576 24.25C8.69792 24.25 8.71011 24.25 8.72233 24.25C8.73454 24.25 8.74677 24.25 8.75903 24.25C8.77129 24.25 8.78357 24.25 8.79587 24.25C8.80818 24.25 8.8205 24.25 8.83285 24.25C8.84519 24.25 8.85756 24.25 8.86995 24.25C8.88235 24.25 8.89476 24.25 8.90719 24.25C8.91963 24.25 8.93208 24.25 8.94456 24.25C8.95704 24.25 8.96954 24.25 8.98206 24.25C8.99458 24.25 9.00712 24.25 9.01968 24.25C9.03225 24.25 9.04483 24.25 9.05743 24.25C9.07004 24.25 9.08266 24.25 9.09531 24.25C9.10795 24.25 9.12062 24.25 9.1333 24.25C9.14599 24.25 9.1587 24.25 9.17142 24.25C9.18415 24.25 9.1969 24.25 9.20966 24.25C9.22243 24.25 9.23522 24.25 9.24802 24.25C9.26083 24.25 9.27366 24.25 9.2865 24.25C9.29935 24.25 9.31221 24.25 9.3251 24.25C9.33798 24.25 9.35088 24.25 9.3638 24.25C9.37673 24.25 9.38967 24.25 9.40263 24.25C9.41559 24.25 9.42857 24.25 9.44156 24.25C9.45456 24.25 9.46758 24.25 9.48061 24.25C9.49365 24.25 9.5067 24.25 9.51977 24.25C9.53284 24.25 9.54593 24.25 9.55904 24.25C9.57214 24.25 9.58527 24.25 9.59841 24.25C9.61155 24.25 9.62471 24.25 9.63789 24.25C9.65107 24.25 9.66426 24.25 9.67747 24.25C9.69069 24.25 9.70391 24.25 9.71716 24.25C9.73041 24.25 9.74367 24.25 9.75695 24.25C9.77023 24.25 9.78353 24.25 9.79684 24.25C9.81016 24.25 9.82349 24.25 9.83683 24.25C9.85018 24.25 9.86354 24.25 9.87692 24.25C9.8903 24.25 9.9037 24.25 9.91711 24.25C9.93052 24.25 9.94394 24.25 9.95739 24.25C9.97083 24.25 9.98429 24.25 9.99776 24.25C10.0112 24.25 10.0247 24.25 10.0382 24.25C10.0517 24.25 10.0653 24.25 10.0788 24.25C10.0923 24.25 10.1059 24.25 10.1194 24.25C10.133 24.25 10.1466 24.25 10.1602 24.25C10.1738 24.25 10.1874 24.25 10.201 24.25C10.2146 24.25 10.2283 24.25 10.2419 24.25C10.2556 24.25 10.2692 24.25 10.2829 24.25C10.2966 24.25 10.3103 24.25 10.324 24.25C10.3377 24.25 10.3514 24.25 10.3652 24.25C10.3789 24.25 10.3926 24.25 10.4064 24.25C10.4202 24.25 10.4339 24.25 10.4477 24.25C10.4615 24.25 10.4753 24.25 10.4891 24.25C10.5029 24.25 10.5168 24.25 10.5306 24.25C10.5445 24.25 10.5583 24.25 10.5722 24.25C10.586 24.25 10.5999 24.25 10.6138 24.25C10.6277 24.25 10.6416 24.25 10.6555 24.25C10.6694 24.25 10.6833 24.25 10.6973 24.25C10.7112 24.25 10.7252 24.25 10.7391 24.25C10.7531 24.25 10.7671 24.25 10.781 24.25C10.795 24.25 10.809 24.25 10.823 24.25C10.837 24.25 10.851 24.25 10.8651 24.25C10.8791 24.25 10.8931 24.25 10.9072 24.25C10.9212 24.25 10.9353 24.25 10.9494 24.25C10.9634 24.25 10.9775 24.25 10.9916 24.25C11.0057 24.25 11.0198 24.25 11.0339 24.25C11.048 24.25 11.0621 24.25 11.0763 24.25C11.0904 24.25 11.1045 24.25 11.1187 24.25C11.1328 24.25 11.147 24.25 11.1612 24.25C11.1753 24.25 11.1895 24.25 11.2037 24.25C11.2179 24.25 11.2321 24.25 11.2463 24.25C11.2605 24.25 11.2747 24.25 11.2889 24.25C11.3032 24.25 11.3174 24.25 11.3316 24.25C11.3459 24.25 11.3601 24.25 11.3744 24.25C11.3886 24.25 11.4029 24.25 11.4172 24.25C11.4314 24.25 11.4457 24.25 11.46 24.25C11.4743 24.25 11.4886 24.25 11.5029 24.25C11.5172 24.25 11.5315 24.25 11.5458 24.25C11.5602 24.25 11.5745 24.25 11.5888 24.25C11.6032 24.25 11.6175 24.25 11.6318 24.25C11.6462 24.25 11.6605 24.25 11.6749 24.25C11.6893 24.25 11.7036 24.25 11.718 24.25C11.7324 24.25 11.7468 24.25 11.7612 24.25C11.7755 24.25 11.7899 24.25 11.8043 24.25C11.8187 24.25 11.8331 24.25 11.8475 24.25C11.862 24.25 11.8764 24.25 11.8908 24.25C11.9052 24.25 11.9197 24.25 11.9341 24.25C11.9485 24.25 11.963 24.25 11.9774 24.25C11.9918 24.25 12.0063 24.25 12.0207 24.25C12.0352 24.25 12.0497 24.25 12.0641 24.25C12.0786 24.25 12.0931 24.25 12.1075 24.25C12.122 24.25 12.1365 24.25 12.151 24.25C12.1654 24.25 12.1799 24.25 12.1944 24.25C12.2089 24.25 12.2234 24.25 12.2379 24.25C12.2524 24.25 12.2669 24.25 12.2814 24.25C12.2959 24.25 12.3104 24.25 12.3249 24.25C12.3395 24.25 12.354 24.25 12.3685 24.25C12.383 24.25 12.3975 24.25 12.4121 24.25C12.4266 24.25 12.4411 24.25 12.4556 24.25C12.4702 24.25 12.4847 24.25 12.4992 24.25C12.5138 24.25 12.5283 24.25 12.5429 24.25C12.5574 24.25 12.5719 24.25 12.5865 24.25C12.601 24.25 12.6156 24.25 12.6301 24.25C12.6447 24.25 12.6592 24.25 12.6738 24.25C12.6883 24.25 12.7029 24.25 12.7175 24.25C12.732 24.25 12.7466 24.25 12.7611 24.25C12.7757 24.25 12.7902 24.25 12.8048 24.25C12.8194 24.25 12.8339 24.25 12.8485 24.25C12.8631 24.25 12.8776 24.25 12.8922 24.25C12.9067 24.25 12.9213 24.25 12.9359 24.25C12.9504 24.25 12.965 24.25 12.9796 24.25C12.9941 24.25 13.0087 24.25 13.0233 24.25C13.0378 24.25 13.0524 24.25 13.067 24.25C13.0815 24.25 13.0961 24.25 13.1107 24.25C13.1252 24.25 13.1398 24.25 13.1543 24.25C13.1689 24.25 13.1835 24.25 13.198 24.25C13.2126 24.25 13.2272 24.25 13.2417 24.25C13.2563 24.25 13.2708 24.25 13.2854 24.25C13.2999 24.25 13.3145 24.25 13.329 24.25C13.3436 24.25 13.3582 24.25 13.3727 24.25C13.3873 24.25 13.4018 24.25 13.4163 24.25C13.4309 24.25 13.4454 24.25 13.46 24.25C13.4745 24.25 13.4891 24.25 13.5036 24.25C13.5181 24.25 13.5327 24.25 13.5472 24.25C13.5617 24.25 13.5763 24.25 13.5908 24.25C13.6053 24.25 13.6198 24.25 13.6343 24.25C13.6489 24.25 13.6634 24.25 13.6779 24.25C13.6924 24.25 13.7069 24.25 13.7214 24.25C13.7359 24.25 13.7504 24.25 13.7649 24.25C13.7794 24.25 13.7939 24.25 13.8084 24.25C13.8229 24.25 13.8374 24.25 13.8519 24.25C13.8663 24.25 13.8808 24.25 13.8953 24.25C13.9098 24.25 13.9242 24.25 13.9387 24.25C13.9532 24.25 13.9676 24.25 13.9821 24.25C13.9965 24.25 14.011 24.25 14.0254 24.25C14.0399 24.25 14.0543 24.25 14.0687 24.25C14.0832 24.25 14.0976 24.25 14.112 24.25C14.1264 24.25 14.1409 24.25 14.1553 24.25C14.1697 24.25 14.1841 24.25 14.1985 24.25C14.2129 24.25 14.2273 24.25 14.2417 24.25C14.2561 24.25 14.2704 24.25 14.2848 24.25C14.2992 24.25 14.3136 24.25 14.3279 24.25C14.3423 24.25 14.3566 24.25 14.371 24.25C14.3853 24.25 14.3997 24.25 14.414 24.25C14.4283 24.25 14.4427 24.25 14.457 24.25C14.4713 24.25 14.4856 24.25 14.4999 24.25C14.5142 24.25 14.5285 24.25 14.5428 24.25C14.5571 24.25 14.5714 24.25 14.5856 24.25C14.5999 24.25 14.6142 24.25 14.6284 24.25C14.6427 24.25 14.6569 24.25 14.6712 24.25C14.6854 24.25 14.6996 24.25 14.7139 24.25C14.7281 24.25 14.7423 24.25 14.7565 24.25C14.7707 24.25 14.7849 24.25 14.7991 24.25C14.8133 24.25 14.8275 24.25 14.8416 24.25C14.8558 24.25 14.87 24.25 14.8841 24.25C14.8983 24.25 14.9124 24.25 14.9265 24.25C14.9407 24.25 14.9548 24.25 14.9689 24.25C14.983 24.25 14.9971 24.25 15.0112 24.25C15.0253 24.25 15.0394 24.25 15.0534 24.25C15.0675 24.25 15.0816 24.25 15.0956 24.25C15.1096 24.25 15.1237 24.25 15.1377 24.25C15.1517 24.25 15.1658 24.25 15.1798 24.25C15.1938 24.25 15.2078 24.25 15.2217 24.25C15.2357 24.25 15.2497 24.25 15.2637 24.25C15.2776 24.25 15.2916 24.25 15.3055 24.25C15.3194 24.25 15.3334 24.25 15.3473 24.25C15.3612 24.25 15.3751 24.25 15.389 24.25C15.4029 24.25 15.4167 24.25 15.4306 24.25C15.4445 24.25 15.4583 24.25 15.4722 24.25C15.486 24.25 15.4998 24.25 15.5136 24.25C15.5274 24.25 15.5412 24.25 15.555 24.25C15.5688 24.25 15.5826 24.25 15.5964 24.25C15.6101 24.25 15.6239 24.25 15.6376 24.25C15.6513 24.25 15.6651 24.25 15.6788 24.25C15.6925 24.25 15.7062 24.25 15.7198 24.25C15.7335 24.25 15.7472 24.25 15.7608 24.25C15.7745 24.25 15.7881 24.25 15.8017 24.25C15.8154 24.25 15.829 24.25 15.8426 24.25C15.8562 24.25 15.8697 24.25 15.8833 24.25C15.8969 24.25 15.9104 24.25 15.924 24.25C15.9375 24.25 15.951 24.25 15.9645 24.25C15.978 24.25 15.9915 24.25 16.005 24.25C16.0184 24.25 16.0319 24.25 16.0453 24.25C16.0588 24.25 16.0722 24.25 16.0856 24.25C16.099 24.25 16.1124 24.25 16.1258 24.25C16.1392 24.25 16.1525 24.25 16.1659 24.25C16.1792 24.25 16.1926 24.25 16.2059 24.25C16.2192 24.25 16.2325 24.25 16.2458 24.25C16.259 24.25 16.2723 24.25 16.2856 24.25C16.2988 24.25 16.312 24.25 16.3252 24.25C16.3385 24.25 16.3516 24.25 16.3648 24.25C16.378 24.25 16.3912 24.25 16.4043 24.25C16.4174 24.25 16.4306 24.25 16.4437 24.25C16.4568 24.25 16.4699 24.25 16.4829 24.25C16.496 24.25 16.5091 24.25 16.5221 24.25C16.5351 24.25 16.5481 24.25 16.5611 24.25C16.5741 24.25 16.5871 24.25 16.6001 24.25C16.613 24.25 16.626 24.25 16.6389 24.25C16.6518 24.25 16.6647 24.25 16.6776 24.25C16.6905 24.25 16.7033 24.25 16.7162 24.25C16.729 24.25 16.7418 24.25 16.7547 24.25C16.7675 24.25 16.7802 24.25 16.793 24.25C16.8058 24.25 16.8185 24.25 16.8312 24.25C16.844 24.25 16.8567 24.25 16.8694 24.25C16.882 24.25 16.8947 24.25 16.9074 24.25C16.92 24.25 16.9326 24.25 16.9452 24.25C16.9578 24.25 16.9704 24.25 16.983 24.25C16.9955 24.25 17.0081 24.25 17.0206 24.25C17.0331 24.25 17.0456 24.25 17.0581 24.25C17.0706 24.25 17.083 24.25 17.0954 24.25C17.1079 24.25 17.1203 24.25 17.1327 24.25C17.1451 24.25 17.1574 24.25 17.1698 24.25C17.1821 24.25 17.1945 24.25 17.2068 24.25C17.2191 24.25 17.2313 24.25 17.2436 24.25C17.2558 24.25 17.2681 24.25 17.2803 24.25C17.2925 24.25 17.3047 24.25 17.3169 24.25C17.329 24.25 17.3412 24.25 17.3533 24.25C17.3654 24.25 17.3775 24.25 17.3896 24.25C17.4016 24.25 17.4137 24.25 17.4257 24.25C17.4377 24.25 17.4498 24.25 17.4617 24.25C17.4737 24.25 17.4857 24.25 17.4976 24.25C17.5095 24.25 17.5214 24.25 17.5333 24.25C17.5452 24.25 17.5571 24.25 17.5689 24.25C17.5807 24.25 17.5925 24.25 17.6043 24.25C17.6161 24.25 17.6279 24.25 17.6396 24.25C17.6513 24.25 17.663 24.25 17.6747 24.25C17.6864 24.25 17.6981 24.25 17.7097 24.25C17.7213 24.25 17.7329 24.25 17.7445 24.25C17.7561 24.25 17.7677 24.25 17.7792 24.25C17.7907 24.25 17.8022 24.25 17.8137 24.25C17.8252 24.25 17.8366 24.25 17.8481 24.25C17.8595 24.25 17.8709 24.25 17.8823 24.25C17.8936 24.25 17.905 24.25 17.9163 24.25C17.9276 24.25 17.9389 24.25 17.9502 24.25C17.9615 24.25 17.9727 24.25 17.9839 24.25C17.9951 24.25 18.0063 24.25 18.0175 24.25C18.0286 24.25 18.0398 24.25 18.0509 24.25C18.062 24.25 18.0731 24.25 18.0841 24.25C18.0952 24.25 18.1062 24.25 18.1172 24.25C18.1282 24.25 18.1391 24.25 18.1501 24.25C18.161 24.25 18.1719 24.25 18.1828 24.25C18.1937 24.25 18.2045 24.25 18.2153 24.25C18.2262 24.25 18.237 24.25 18.2477 24.25C18.2585 24.25 18.2692 24.25 18.2799 24.25C18.2906 24.25 18.3013 24.25 18.312 24.25C18.3226 24.25 18.3332 24.25 18.3438 24.25C18.3544 24.25 18.365 24.25 18.3755 24.25C18.386 24.25 18.3965 24.25 18.407 24.25C18.4175 24.25 18.4279 24.25 18.4383 24.25C18.4488 24.25 18.4591 24.25 18.4695 24.25C18.4798 24.25 18.4902 24.25 18.5004 24.25C18.5107 24.25 18.521 24.25 18.5312 24.25C18.5414 24.25 18.5516 24.25 18.5618 24.25C18.572 24.25 18.5821 24.25 18.5922 24.25C18.6023 24.25 18.6124 24.25 18.6224 24.25C18.6325 24.25 18.6425 24.25 18.6525 24.25C18.6624 24.25 18.6724 24.25 18.6823 24.25C18.6922 24.25 18.7021 24.25 18.7119 24.25C18.7218 24.25 18.7316 24.25 18.7414 24.25C18.7512 24.25 18.7609 24.25 18.7706 24.25C18.7804 24.25 18.79 24.25 18.7997 24.25C18.8094 24.25 18.819 24.25 18.8286 24.25C18.8382 24.25 18.8477 24.25 18.8572 24.25C18.8668 24.25 18.8762 24.25 18.8857 24.25C18.8952 24.25 18.9046 24.25 18.914 24.25C18.9234 24.25 18.9327 24.25 18.942 24.25C18.9513 24.25 18.9606 24.25 18.9699 24.25C18.9791 24.25 18.9884 24.25 18.9975 24.25C19.0067 24.25 19.0159 24.25 19.025 24.25C19.0341 24.25 19.0432 24.25 19.0522 24.25C19.0613 24.25 19.0703 24.25 19.0793 24.25C19.0882 24.25 19.0972 24.25 19.1061 24.25C19.115 24.25 19.1238 24.25 19.1327 24.25C19.1415 24.25 19.1503 24.25 19.1591 24.25C19.1678 24.25 19.1766 24.25 19.1853 24.25C19.194 24.25 19.2026 24.25 19.2112 24.25C19.2198 24.25 19.2284 24.25 19.237 24.25C19.2455 24.25 19.254 24.25 19.2625 24.25C19.271 24.25 19.2794 24.25 19.2878 24.25C19.2962 24.25 19.3046 24.25 19.3129 24.25C19.3212 24.25 19.3295 24.25 19.3378 24.25C19.346 24.25 19.3542 24.25 19.3624 24.25C19.3706 24.25 19.3787 24.25 19.3868 24.25C19.3949 24.25 19.403 24.25 19.411 24.25C19.4191 24.25 19.4271 24.25 19.435 24.25C19.443 24.25 19.4509 24.25 19.4587 24.25C19.4666 24.25 19.4745 24.25 19.4823 24.25C19.49 24.25 19.4978 24.25 19.5055 24.25C19.5132 24.25 19.5209 24.25 19.5286 24.25C19.5362 24.25 19.5438 24.25 19.5514 24.25C19.5589 24.25 19.5665 24.25 19.574 24.25C19.5814 24.25 19.5889 24.25 19.5963 24.25C19.6037 24.25 19.6111 24.25 19.6184 24.25C19.6257 24.25 19.633 24.25 19.6403 24.25C19.6475 24.25 19.6547 24.25 19.6619 24.25C19.669 24.25 19.6762 24.25 19.6833 24.25C19.6903 24.25 19.6974 24.25 19.7044 24.25C19.7114 24.25 19.7184 24.25 19.7253 24.25C19.7322 24.25 19.7391 24.25 19.7459 24.25C19.7528 24.25 19.7596 24.25 19.7663 24.25C19.7731 24.25 19.7798 24.25 19.7865 24.25C19.7931 24.25 19.7998 24.25 19.8064 24.25C19.813 24.25 19.8195 24.25 19.826 24.25C19.8325 24.25 19.839 24.25 19.8454 24.25C19.8518 24.25 19.8582 24.25 19.8646 24.25C19.8709 24.25 19.8772 24.25 19.8834 24.25C19.8897 24.25 19.8959 24.25 19.9021 24.25C19.9082 24.25 19.9144 24.25 19.9204 24.25C19.9265 24.25 19.9326 24.25 19.9386 24.25C19.9446 24.25 19.9505 24.25 19.9564 24.25C19.9623 24.25 19.9682 24.25 19.974 24.25C19.9798 24.25 19.9856 24.25 19.9913 24.25C19.9971 24.25 20.0028 24.25 20.0084 24.25C20.014 24.25 20.0196 24.25 20.0252 24.25C20.0308 24.25 20.0363 24.25 20.0417 24.25C20.0472 24.25 20.0526 24.25 20.058 24.25C20.0634 24.25 20.0687 24.25 20.074 24.25C20.0793 24.25 20.0845 24.25 20.0897 24.25C20.0949 24.25 20.1001 24.25 20.1052 24.25C20.1103 24.25 20.1153 24.25 20.1203 24.25C20.1254 24.25 20.1303 24.25 20.1352 24.25C20.1402 24.25 20.145 24.25 20.1499 24.25C20.1547 24.25 20.1595 24.25 20.1642 24.25C20.169 24.25 20.1736 24.25 20.1783 24.25C20.1829 24.25 20.1875 24.25 20.1921 24.25C20.1966 24.25 20.2011 24.25 20.2056 24.25C20.21 24.25 20.2145 24.25 20.2188 24.25C20.2232 24.25 20.2275 24.25 20.2318 24.25C20.236 24.25 20.2402 24.25 20.2444 24.25C20.2486 24.25 20.2527 24.25 20.2568 24.25C20.2609 24.25 20.2649 24.25 20.2689 24.25C20.2728 24.25 20.2768 24.25 20.2807 24.25C20.2845 24.25 20.2884 24.25 20.2922 24.25C20.2959 24.25 20.2997 24.25 20.3034 24.25C20.3071 24.25 20.3107 24.25 20.3143 24.25C20.3179 24.25 20.3214 24.25 20.3249 24.25C20.3284 24.25 20.3318 24.25 20.3352 24.25C20.3386 24.25 20.342 24.25 20.3453 24.25C20.3485 24.25 20.3518 24.25 20.355 24.25C20.3582 24.25 20.3613 24.25 20.3644 24.25C20.3675 24.25 20.3705 24.25 20.3735 24.25C20.3765 24.25 20.3795 24.25 20.3824 24.25C20.3853 24.25 20.3881 24.25 20.3909 24.25C20.3937 24.25 20.3964 24.25 20.3991 24.25C20.4018 24.25 20.4044 24.25 20.407 24.25C20.4096 24.25 20.4121 24.25 20.4146 24.25C20.4171 24.25 20.4195 24.25 20.4219 24.25C20.4243 24.25 20.4266 24.25 20.4289 24.25C20.4312 24.25 20.4334 24.25 20.4356 24.25C20.4377 24.25 20.4399 24.25 20.4419 24.25C20.444 24.25 20.446 24.25 20.448 24.25C20.4499 24.25 20.4518 24.25 20.4537 24.25C20.4556 24.25 20.4574 24.25 20.4591 24.25C20.4609 24.25 20.4626 24.25 20.4642 24.25C20.4658 24.25 20.4674 24.25 20.469 24.25C20.4705 24.25 20.472 24.25 20.4734 24.25C20.4749 24.25 20.4762 24.25 20.4776 24.25C20.4789 24.25 20.4801 24.25 20.4814 24.25C20.4826 24.25 20.4837 24.25 20.4848 24.25C20.4859 24.25 20.487 24.25 20.488 24.25C20.489 24.25 20.4899 24.25 20.4908 24.25C20.4917 24.25 20.4925 24.25 20.4933 24.25C20.4941 24.25 20.4948 24.25 20.4955 24.25C20.4962 24.25 20.4968 24.25 20.4973 24.25C20.4979 24.25 20.4984 24.25 20.4988 24.25C20.4993 24.25 20.4997 24.25 20.5 24.25V22.75C20.4997 22.75 20.4993 22.75 20.4988 22.75C20.4984 22.75 20.4979 22.75 20.4973 22.75C20.4968 22.75 20.4962 22.75 20.4955 22.75C20.4948 22.75 20.4941 22.75 20.4933 22.75C20.4925 22.75 20.4917 22.75 20.4908 22.75C20.4899 22.75 20.489 22.75 20.488 22.75C20.487 22.75 20.4859 22.75 20.4848 22.75C20.4837 22.75 20.4826 22.75 20.4814 22.75C20.4801 22.75 20.4789 22.75 20.4776 22.75C20.4762 22.75 20.4749 22.75 20.4734 22.75C20.472 22.75 20.4705 22.75 20.469 22.75C20.4674 22.75 20.4658 22.75 20.4642 22.75C20.4626 22.75 20.4609 22.75 20.4591 22.75C20.4574 22.75 20.4556 22.75 20.4537 22.75C20.4518 22.75 20.4499 22.75 20.448 22.75C20.446 22.75 20.444 22.75 20.4419 22.75C20.4399 22.75 20.4377 22.75 20.4356 22.75C20.4334 22.75 20.4312 22.75 20.4289 22.75C20.4266 22.75 20.4243 22.75 20.4219 22.75C20.4195 22.75 20.4171 22.75 20.4146 22.75C20.4121 22.75 20.4096 22.75 20.407 22.75C20.4044 22.75 20.4018 22.75 20.3991 22.75C20.3964 22.75 20.3937 22.75 20.3909 22.75C20.3881 22.75 20.3853 22.75 20.3824 22.75C20.3795 22.75 20.3765 22.75 20.3735 22.75C20.3705 22.75 20.3675 22.75 20.3644 22.75C20.3613 22.75 20.3582 22.75 20.355 22.75C20.3518 22.75 20.3485 22.75 20.3453 22.75C20.342 22.75 20.3386 22.75 20.3352 22.75C20.3318 22.75 20.3284 22.75 20.3249 22.75C20.3214 22.75 20.3179 22.75 20.3143 22.75C20.3107 22.75 20.3071 22.75 20.3034 22.75C20.2997 22.75 20.2959 22.75 20.2922 22.75C20.2884 22.75 20.2845 22.75 20.2807 22.75C20.2768 22.75 20.2728 22.75 20.2689 22.75C20.2649 22.75 20.2609 22.75 20.2568 22.75C20.2527 22.75 20.2486 22.75 20.2444 22.75C20.2402 22.75 20.236 22.75 20.2318 22.75C20.2275 22.75 20.2232 22.75 20.2188 22.75C20.2145 22.75 20.21 22.75 20.2056 22.75C20.2011 22.75 20.1966 22.75 20.1921 22.75C20.1875 22.75 20.1829 22.75 20.1783 22.75C20.1736 22.75 20.169 22.75 20.1642 22.75C20.1595 22.75 20.1547 22.75 20.1499 22.75C20.145 22.75 20.1402 22.75 20.1352 22.75C20.1303 22.75 20.1254 22.75 20.1203 22.75C20.1153 22.75 20.1103 22.75 20.1052 22.75C20.1001 22.75 20.0949 22.75 20.0897 22.75C20.0845 22.75 20.0793 22.75 20.074 22.75C20.0687 22.75 20.0634 22.75 20.058 22.75C20.0526 22.75 20.0472 22.75 20.0417 22.75C20.0363 22.75 20.0308 22.75 20.0252 22.75C20.0196 22.75 20.014 22.75 20.0084 22.75C20.0028 22.75 19.9971 22.75 19.9913 22.75C19.9856 22.75 19.9798 22.75 19.974 22.75C19.9682 22.75 19.9623 22.75 19.9564 22.75C19.9505 22.75 19.9446 22.75 19.9386 22.75C19.9326 22.75 19.9265 22.75 19.9204 22.75C19.9144 22.75 19.9082 22.75 19.9021 22.75C19.8959 22.75 19.8897 22.75 19.8834 22.75C19.8772 22.75 19.8709 22.75 19.8646 22.75C19.8582 22.75 19.8518 22.75 19.8454 22.75C19.839 22.75 19.8325 22.75 19.826 22.75C19.8195 22.75 19.813 22.75 19.8064 22.75C19.7998 22.75 19.7931 22.75 19.7865 22.75C19.7798 22.75 19.7731 22.75 19.7663 22.75C19.7596 22.75 19.7528 22.75 19.7459 22.75C19.7391 22.75 19.7322 22.75 19.7253 22.75C19.7184 22.75 19.7114 22.75 19.7044 22.75C19.6974 22.75 19.6903 22.75 19.6833 22.75C19.6762 22.75 19.669 22.75 19.6619 22.75C19.6547 22.75 19.6475 22.75 19.6403 22.75C19.633 22.75 19.6257 22.75 19.6184 22.75C19.6111 22.75 19.6037 22.75 19.5963 22.75C19.5889 22.75 19.5814 22.75 19.574 22.75C19.5665 22.75 19.5589 22.75 19.5514 22.75C19.5438 22.75 19.5362 22.75 19.5286 22.75C19.5209 22.75 19.5132 22.75 19.5055 22.75C19.4978 22.75 19.49 22.75 19.4823 22.75C19.4745 22.75 19.4666 22.75 19.4587 22.75C19.4509 22.75 19.443 22.75 19.435 22.75C19.4271 22.75 19.4191 22.75 19.411 22.75C19.403 22.75 19.3949 22.75 19.3868 22.75C19.3787 22.75 19.3706 22.75 19.3624 22.75C19.3542 22.75 19.346 22.75 19.3378 22.75C19.3295 22.75 19.3212 22.75 19.3129 22.75C19.3046 22.75 19.2962 22.75 19.2878 22.75C19.2794 22.75 19.271 22.75 19.2625 22.75C19.254 22.75 19.2455 22.75 19.237 22.75C19.2284 22.75 19.2198 22.75 19.2112 22.75C19.2026 22.75 19.194 22.75 19.1853 22.75C19.1766 22.75 19.1678 22.75 19.1591 22.75C19.1503 22.75 19.1415 22.75 19.1327 22.75C19.1238 22.75 19.115 22.75 19.1061 22.75C19.0972 22.75 19.0882 22.75 19.0793 22.75C19.0703 22.75 19.0613 22.75 19.0522 22.75C19.0432 22.75 19.0341 22.75 19.025 22.75C19.0159 22.75 19.0067 22.75 18.9975 22.75C18.9884 22.75 18.9791 22.75 18.9699 22.75C18.9606 22.75 18.9513 22.75 18.942 22.75C18.9327 22.75 18.9234 22.75 18.914 22.75C18.9046 22.75 18.8952 22.75 18.8857 22.75C18.8762 22.75 18.8668 22.75 18.8572 22.75C18.8477 22.75 18.8382 22.75 18.8286 22.75C18.819 22.75 18.8094 22.75 18.7997 22.75C18.79 22.75 18.7804 22.75 18.7706 22.75C18.7609 22.75 18.7512 22.75 18.7414 22.75C18.7316 22.75 18.7218 22.75 18.7119 22.75C18.7021 22.75 18.6922 22.75 18.6823 22.75C18.6724 22.75 18.6624 22.75 18.6525 22.75C18.6425 22.75 18.6325 22.75 18.6224 22.75C18.6124 22.75 18.6023 22.75 18.5922 22.75C18.5821 22.75 18.572 22.75 18.5618 22.75C18.5516 22.75 18.5414 22.75 18.5312 22.75C18.521 22.75 18.5107 22.75 18.5004 22.75C18.4902 22.75 18.4798 22.75 18.4695 22.75C18.4591 22.75 18.4488 22.75 18.4383 22.75C18.4279 22.75 18.4175 22.75 18.407 22.75C18.3965 22.75 18.386 22.75 18.3755 22.75C18.365 22.75 18.3544 22.75 18.3438 22.75C18.3332 22.75 18.3226 22.75 18.312 22.75C18.3013 22.75 18.2906 22.75 18.2799 22.75C18.2692 22.75 18.2585 22.75 18.2477 22.75C18.237 22.75 18.2262 22.75 18.2153 22.75C18.2045 22.75 18.1937 22.75 18.1828 22.75C18.1719 22.75 18.161 22.75 18.1501 22.75C18.1391 22.75 18.1282 22.75 18.1172 22.75C18.1062 22.75 18.0952 22.75 18.0841 22.75C18.0731 22.75 18.062 22.75 18.0509 22.75C18.0398 22.75 18.0286 22.75 18.0175 22.75C18.0063 22.75 17.9951 22.75 17.9839 22.75C17.9727 22.75 17.9615 22.75 17.9502 22.75C17.9389 22.75 17.9276 22.75 17.9163 22.75C17.905 22.75 17.8936 22.75 17.8823 22.75C17.8709 22.75 17.8595 22.75 17.8481 22.75C17.8366 22.75 17.8252 22.75 17.8137 22.75C17.8022 22.75 17.7907 22.75 17.7792 22.75C17.7677 22.75 17.7561 22.75 17.7445 22.75C17.7329 22.75 17.7213 22.75 17.7097 22.75C17.6981 22.75 17.6864 22.75 17.6747 22.75C17.663 22.75 17.6513 22.75 17.6396 22.75C17.6279 22.75 17.6161 22.75 17.6043 22.75C17.5925 22.75 17.5807 22.75 17.5689 22.75C17.5571 22.75 17.5452 22.75 17.5333 22.75C17.5214 22.75 17.5095 22.75 17.4976 22.75C17.4857 22.75 17.4737 22.75 17.4617 22.75C17.4498 22.75 17.4377 22.75 17.4257 22.75C17.4137 22.75 17.4016 22.75 17.3896 22.75C17.3775 22.75 17.3654 22.75 17.3533 22.75C17.3412 22.75 17.329 22.75 17.3169 22.75C17.3047 22.75 17.2925 22.75 17.2803 22.75C17.2681 22.75 17.2558 22.75 17.2436 22.75C17.2313 22.75 17.2191 22.75 17.2068 22.75C17.1945 22.75 17.1821 22.75 17.1698 22.75C17.1574 22.75 17.1451 22.75 17.1327 22.75C17.1203 22.75 17.1079 22.75 17.0954 22.75C17.083 22.75 17.0706 22.75 17.0581 22.75C17.0456 22.75 17.0331 22.75 17.0206 22.75C17.0081 22.75 16.9955 22.75 16.983 22.75C16.9704 22.75 16.9578 22.75 16.9452 22.75C16.9326 22.75 16.92 22.75 16.9074 22.75C16.8947 22.75 16.882 22.75 16.8694 22.75C16.8567 22.75 16.844 22.75 16.8312 22.75C16.8185 22.75 16.8058 22.75 16.793 22.75C16.7802 22.75 16.7675 22.75 16.7547 22.75C16.7418 22.75 16.729 22.75 16.7162 22.75C16.7033 22.75 16.6905 22.75 16.6776 22.75C16.6647 22.75 16.6518 22.75 16.6389 22.75C16.626 22.75 16.613 22.75 16.6001 22.75C16.5871 22.75 16.5741 22.75 16.5611 22.75C16.5481 22.75 16.5351 22.75 16.5221 22.75C16.5091 22.75 16.496 22.75 16.4829 22.75C16.4699 22.75 16.4568 22.75 16.4437 22.75C16.4306 22.75 16.4174 22.75 16.4043 22.75C16.3912 22.75 16.378 22.75 16.3648 22.75C16.3516 22.75 16.3385 22.75 16.3252 22.75C16.312 22.75 16.2988 22.75 16.2856 22.75C16.2723 22.75 16.259 22.75 16.2458 22.75C16.2325 22.75 16.2192 22.75 16.2059 22.75C16.1926 22.75 16.1792 22.75 16.1659 22.75C16.1525 22.75 16.1392 22.75 16.1258 22.75C16.1124 22.75 16.099 22.75 16.0856 22.75C16.0722 22.75 16.0588 22.75 16.0453 22.75C16.0319 22.75 16.0184 22.75 16.005 22.75C15.9915 22.75 15.978 22.75 15.9645 22.75C15.951 22.75 15.9375 22.75 15.924 22.75C15.9104 22.75 15.8969 22.75 15.8833 22.75C15.8697 22.75 15.8562 22.75 15.8426 22.75C15.829 22.75 15.8154 22.75 15.8017 22.75C15.7881 22.75 15.7745 22.75 15.7608 22.75C15.7472 22.75 15.7335 22.75 15.7198 22.75C15.7062 22.75 15.6925 22.75 15.6788 22.75C15.6651 22.75 15.6513 22.75 15.6376 22.75C15.6239 22.75 15.6101 22.75 15.5964 22.75C15.5826 22.75 15.5688 22.75 15.555 22.75C15.5412 22.75 15.5274 22.75 15.5136 22.75C15.4998 22.75 15.486 22.75 15.4722 22.75C15.4583 22.75 15.4445 22.75 15.4306 22.75C15.4167 22.75 15.4029 22.75 15.389 22.75C15.3751 22.75 15.3612 22.75 15.3473 22.75C15.3334 22.75 15.3194 22.75 15.3055 22.75C15.2916 22.75 15.2776 22.75 15.2637 22.75C15.2497 22.75 15.2357 22.75 15.2217 22.75C15.2078 22.75 15.1938 22.75 15.1798 22.75C15.1658 22.75 15.1517 22.75 15.1377 22.75C15.1237 22.75 15.1096 22.75 15.0956 22.75C15.0816 22.75 15.0675 22.75 15.0534 22.75C15.0394 22.75 15.0253 22.75 15.0112 22.75C14.9971 22.75 14.983 22.75 14.9689 22.75C14.9548 22.75 14.9407 22.75 14.9265 22.75C14.9124 22.75 14.8983 22.75 14.8841 22.75C14.87 22.75 14.8558 22.75 14.8416 22.75C14.8275 22.75 14.8133 22.75 14.7991 22.75C14.7849 22.75 14.7707 22.75 14.7565 22.75C14.7423 22.75 14.7281 22.75 14.7139 22.75C14.6996 22.75 14.6854 22.75 14.6712 22.75C14.6569 22.75 14.6427 22.75 14.6284 22.75C14.6142 22.75 14.5999 22.75 14.5856 22.75C14.5714 22.75 14.5571 22.75 14.5428 22.75C14.5285 22.75 14.5142 22.75 14.4999 22.75C14.4856 22.75 14.4713 22.75 14.457 22.75C14.4427 22.75 14.4283 22.75 14.414 22.75C14.3997 22.75 14.3853 22.75 14.371 22.75C14.3566 22.75 14.3423 22.75 14.3279 22.75C14.3136 22.75 14.2992 22.75 14.2848 22.75C14.2704 22.75 14.2561 22.75 14.2417 22.75C14.2273 22.75 14.2129 22.75 14.1985 22.75C14.1841 22.75 14.1697 22.75 14.1553 22.75C14.1409 22.75 14.1264 22.75 14.112 22.75C14.0976 22.75 14.0832 22.75 14.0687 22.75C14.0543 22.75 14.0399 22.75 14.0254 22.75C14.011 22.75 13.9965 22.75 13.9821 22.75C13.9676 22.75 13.9532 22.75 13.9387 22.75C13.9242 22.75 13.9098 22.75 13.8953 22.75C13.8808 22.75 13.8663 22.75 13.8519 22.75C13.8374 22.75 13.8229 22.75 13.8084 22.75C13.7939 22.75 13.7794 22.75 13.7649 22.75C13.7504 22.75 13.7359 22.75 13.7214 22.75C13.7069 22.75 13.6924 22.75 13.6779 22.75C13.6634 22.75 13.6489 22.75 13.6343 22.75C13.6198 22.75 13.6053 22.75 13.5908 22.75C13.5763 22.75 13.5617 22.75 13.5472 22.75C13.5327 22.75 13.5181 22.75 13.5036 22.75C13.4891 22.75 13.4745 22.75 13.46 22.75C13.4454 22.75 13.4309 22.75 13.4163 22.75C13.4018 22.75 13.3873 22.75 13.3727 22.75C13.3582 22.75 13.3436 22.75 13.329 22.75C13.3145 22.75 13.2999 22.75 13.2854 22.75C13.2708 22.75 13.2563 22.75 13.2417 22.75C13.2272 22.75 13.2126 22.75 13.198 22.75C13.1835 22.75 13.1689 22.75 13.1543 22.75C13.1398 22.75 13.1252 22.75 13.1107 22.75C13.0961 22.75 13.0815 22.75 13.067 22.75C13.0524 22.75 13.0378 22.75 13.0233 22.75C13.0087 22.75 12.9941 22.75 12.9796 22.75C12.965 22.75 12.9504 22.75 12.9359 22.75C12.9213 22.75 12.9067 22.75 12.8922 22.75C12.8776 22.75 12.8631 22.75 12.8485 22.75C12.8339 22.75 12.8194 22.75 12.8048 22.75C12.7902 22.75 12.7757 22.75 12.7611 22.75C12.7466 22.75 12.732 22.75 12.7175 22.75C12.7029 22.75 12.6883 22.75 12.6738 22.75C12.6592 22.75 12.6447 22.75 12.6301 22.75C12.6156 22.75 12.601 22.75 12.5865 22.75C12.5719 22.75 12.5574 22.75 12.5429 22.75C12.5283 22.75 12.5138 22.75 12.4992 22.75C12.4847 22.75 12.4702 22.75 12.4556 22.75C12.4411 22.75 12.4266 22.75 12.4121 22.75C12.3975 22.75 12.383 22.75 12.3685 22.75C12.354 22.75 12.3395 22.75 12.3249 22.75C12.3104 22.75 12.2959 22.75 12.2814 22.75C12.2669 22.75 12.2524 22.75 12.2379 22.75C12.2234 22.75 12.2089 22.75 12.1944 22.75C12.1799 22.75 12.1654 22.75 12.151 22.75C12.1365 22.75 12.122 22.75 12.1075 22.75C12.0931 22.75 12.0786 22.75 12.0641 22.75C12.0497 22.75 12.0352 22.75 12.0207 22.75C12.0063 22.75 11.9918 22.75 11.9774 22.75C11.963 22.75 11.9485 22.75 11.9341 22.75C11.9197 22.75 11.9052 22.75 11.8908 22.75C11.8764 22.75 11.862 22.75 11.8475 22.75C11.8331 22.75 11.8187 22.75 11.8043 22.75C11.7899 22.75 11.7755 22.75 11.7612 22.75C11.7468 22.75 11.7324 22.75 11.718 22.75C11.7036 22.75 11.6893 22.75 11.6749 22.75C11.6605 22.75 11.6462 22.75 11.6318 22.75C11.6175 22.75 11.6032 22.75 11.5888 22.75C11.5745 22.75 11.5602 22.75 11.5458 22.75C11.5315 22.75 11.5172 22.75 11.5029 22.75C11.4886 22.75 11.4743 22.75 11.46 22.75C11.4457 22.75 11.4314 22.75 11.4172 22.75C11.4029 22.75 11.3886 22.75 11.3744 22.75C11.3601 22.75 11.3459 22.75 11.3316 22.75C11.3174 22.75 11.3032 22.75 11.2889 22.75C11.2747 22.75 11.2605 22.75 11.2463 22.75C11.2321 22.75 11.2179 22.75 11.2037 22.75C11.1895 22.75 11.1753 22.75 11.1612 22.75C11.147 22.75 11.1328 22.75 11.1187 22.75C11.1045 22.75 11.0904 22.75 11.0763 22.75C11.0621 22.75 11.048 22.75 11.0339 22.75C11.0198 22.75 11.0057 22.75 10.9916 22.75C10.9775 22.75 10.9634 22.75 10.9494 22.75C10.9353 22.75 10.9212 22.75 10.9072 22.75C10.8931 22.75 10.8791 22.75 10.8651 22.75C10.851 22.75 10.837 22.75 10.823 22.75C10.809 22.75 10.795 22.75 10.781 22.75C10.7671 22.75 10.7531 22.75 10.7391 22.75C10.7252 22.75 10.7112 22.75 10.6973 22.75C10.6833 22.75 10.6694 22.75 10.6555 22.75C10.6416 22.75 10.6277 22.75 10.6138 22.75C10.5999 22.75 10.586 22.75 10.5722 22.75C10.5583 22.75 10.5445 22.75 10.5306 22.75C10.5168 22.75 10.5029 22.75 10.4891 22.75C10.4753 22.75 10.4615 22.75 10.4477 22.75C10.4339 22.75 10.4202 22.75 10.4064 22.75C10.3926 22.75 10.3789 22.75 10.3652 22.75C10.3514 22.75 10.3377 22.75 10.324 22.75C10.3103 22.75 10.2966 22.75 10.2829 22.75C10.2692 22.75 10.2556 22.75 10.2419 22.75C10.2283 22.75 10.2146 22.75 10.201 22.75C10.1874 22.75 10.1738 22.75 10.1602 22.75C10.1466 22.75 10.133 22.75 10.1194 22.75C10.1059 22.75 10.0923 22.75 10.0788 22.75C10.0653 22.75 10.0517 22.75 10.0382 22.75C10.0247 22.75 10.0112 22.75 9.99776 22.75C9.98429 22.75 9.97083 22.75 9.95739 22.75C9.94394 22.75 9.93052 22.75 9.91711 22.75C9.9037 22.75 9.8903 22.75 9.87692 22.75C9.86354 22.75 9.85018 22.75 9.83683 22.75C9.82349 22.75 9.81016 22.75 9.79684 22.75C9.78353 22.75 9.77023 22.75 9.75695 22.75C9.74367 22.75 9.73041 22.75 9.71716 22.75C9.70391 22.75 9.69069 22.75 9.67747 22.75C9.66426 22.75 9.65107 22.75 9.63789 22.75C9.62471 22.75 9.61155 22.75 9.59841 22.75C9.58527 22.75 9.57214 22.75 9.55904 22.75C9.54593 22.75 9.53284 22.75 9.51977 22.75C9.5067 22.75 9.49365 22.75 9.48061 22.75C9.46758 22.75 9.45456 22.75 9.44156 22.75C9.42857 22.75 9.41559 22.75 9.40263 22.75C9.38967 22.75 9.37673 22.75 9.3638 22.75C9.35088 22.75 9.33798 22.75 9.3251 22.75C9.31221 22.75 9.29935 22.75 9.2865 22.75C9.27366 22.75 9.26083 22.75 9.24802 22.75C9.23522 22.75 9.22243 22.75 9.20966 22.75C9.1969 22.75 9.18415 22.75 9.17142 22.75C9.1587 22.75 9.14599 22.75 9.1333 22.75C9.12062 22.75 9.10795 22.75 9.09531 22.75C9.08266 22.75 9.07004 22.75 9.05743 22.75C9.04483 22.75 9.03225 22.75 9.01968 22.75C9.00712 22.75 8.99458 22.75 8.98206 22.75C8.96954 22.75 8.95704 22.75 8.94456 22.75C8.93208 22.75 8.91963 22.75 8.90719 22.75C8.89476 22.75 8.88235 22.75 8.86995 22.75C8.85756 22.75 8.84519 22.75 8.83285 22.75C8.8205 22.75 8.80818 22.75 8.79587 22.75C8.78357 22.75 8.77129 22.75 8.75903 22.75C8.74677 22.75 8.73454 22.75 8.72233 22.75C8.71011 22.75 8.69792 22.75 8.68576 22.75C8.67359 22.75 8.66144 22.75 8.64932 22.75C8.6372 22.75 8.62511 22.75 8.61303 22.75C8.60096 22.75 8.58891 22.75 8.57688 22.75C8.56485 22.75 8.55285 22.75 8.54087 22.75C8.52889 22.75 8.51693 22.75 8.505 22.75C8.49307 22.75 8.48116 22.75 8.46928 22.75C8.45739 22.75 8.44553 22.75 8.4337 22.75C8.42186 22.75 8.41005 22.75 8.39827 22.75C8.38648 22.75 8.37472 22.75 8.36298 22.75C8.35125 22.75 8.33954 22.75 8.32785 22.75C8.31617 22.75 8.3045 22.75 8.29287 22.75C8.28123 22.75 8.26962 22.75 8.25804 22.75C8.24645 22.75 8.2349 22.75 8.22336 22.75C8.21183 22.75 8.20032 22.75 8.18884 22.75C8.17736 22.75 8.16591 22.75 8.15448 22.75C8.14305 22.75 8.13164 22.75 8.12027 22.75C8.10889 22.75 8.09754 22.75 8.08622 22.75C8.0749 22.75 8.0636 22.75 8.05233 22.75C8.04106 22.75 8.02982 22.75 8.0186 22.75C8.00739 22.75 7.9962 22.75 7.98504 22.75C7.97388 22.75 7.96274 22.75 7.95164 22.75C7.94053 22.75 7.92945 22.75 7.9184 22.75C7.90735 22.75 7.89633 22.75 7.88533 22.75C7.87434 22.75 7.86337 22.75 7.85243 22.75C7.8415 22.75 7.83059 22.75 7.8197 22.75C7.80882 22.75 7.79797 22.75 7.78714 22.75C7.77632 22.75 7.76552 22.75 7.75475 22.75C7.74399 22.75 7.73325 22.75 7.72254 22.75C7.71183 22.75 7.70115 22.75 7.6905 22.75C7.67985 22.75 7.66923 22.75 7.65863 22.75C7.64804 22.75 7.63748 22.75 7.62695 22.75C7.61642 22.75 7.60591 22.75 7.59544 22.75C7.58497 22.75 7.57452 22.75 7.56411 22.75C7.5537 22.75 7.54332 22.75 7.53296 22.75C7.52261 22.75 7.51229 22.75 7.502 22.75C7.49171 22.75 7.48145 22.75 7.47122 22.75C7.46099 22.75 7.45079 22.75 7.44062 22.75C7.43045 22.75 7.42032 22.75 7.41021 22.75C7.40011 22.75 7.39003 22.75 7.37999 22.75C7.36995 22.75 7.35994 22.75 7.34996 22.75C7.33998 22.75 7.33003 22.75 7.32012 22.75C7.3102 22.75 7.30032 22.75 7.29047 22.75C7.28062 22.75 7.2708 22.75 7.26101 22.75C7.25122 22.75 7.24147 22.75 7.23175 22.75C7.22203 22.75 7.21234 22.75 7.20268 22.75C7.19302 22.75 7.1834 22.75 7.17381 22.75C7.16422 22.75 7.15466 22.75 7.14514 22.75C7.13561 22.75 7.12612 22.75 7.11667 22.75C7.10721 22.75 7.09779 22.75 7.0884 22.75C7.07901 22.75 7.06965 22.75 7.06033 22.75C7.05101 22.75 7.04172 22.75 7.03246 22.75C7.02321 22.75 7.01399 22.75 7.0048 22.75C6.99562 22.75 6.98647 22.75 6.97735 22.75C6.96823 22.75 6.95915 22.75 6.9501 22.75C6.94106 22.75 6.93204 22.75 6.92307 22.75C6.91409 22.75 6.90515 22.75 6.89624 22.75C6.88733 22.75 6.87846 22.75 6.86962 22.75C6.86079 22.75 6.85199 22.75 6.84322 22.75C6.83446 22.75 6.82573 22.75 6.81703 22.75C6.80834 22.75 6.79968 22.75 6.79106 22.75C6.78244 22.75 6.77385 22.75 6.7653 22.75C6.75676 22.75 6.74824 22.75 6.73977 22.75C6.73129 22.75 6.72285 22.75 6.71445 22.75C6.70605 22.75 6.69768 22.75 6.68935 22.75C6.68102 22.75 6.67273 22.75 6.66447 22.75C6.65622 22.75 6.648 22.75 6.63982 22.75C6.63164 22.75 6.6235 22.75 6.6154 22.75C6.60729 22.75 6.59922 22.75 6.59119 22.75C6.58316 22.75 6.57517 22.75 6.56722 22.75C6.55927 22.75 6.55135 22.75 6.54347 22.75C6.5356 22.75 6.52776 22.75 6.51996 22.75C6.51216 22.75 6.5044 22.75 6.49668 22.75C6.48895 22.75 6.48127 22.75 6.47362 22.75C6.46598 22.75 6.45837 22.75 6.45081 22.75C6.44324 22.75 6.43571 22.75 6.42822 22.75C6.42074 22.75 6.41329 22.75 6.40588 22.75C6.39847 22.75 6.3911 22.75 6.38377 22.75C6.37644 22.75 6.36915 22.75 6.3619 22.75C6.35465 22.75 6.34744 22.75 6.34028 22.75C6.33311 22.75 6.32598 22.75 6.31889 22.75C6.3118 22.75 6.30475 22.75 6.29775 22.75C6.29074 22.75 6.28377 22.75 6.27685 22.75C6.26992 22.75 6.26304 22.75 6.2562 22.75C6.24935 22.75 6.24255 22.75 6.23579 22.75C6.22903 22.75 6.22231 22.75 6.21563 22.75C6.20896 22.75 6.20232 22.75 6.19573 22.75C6.18913 22.75 6.18258 22.75 6.17607 22.75C6.16956 22.75 6.16309 22.75 6.15667 22.75C6.15024 22.75 6.14386 22.75 6.13752 22.75C6.13118 22.75 6.12488 22.75 6.11862 22.75C6.11237 22.75 6.10615 22.75 6.09998 22.75C6.09381 22.75 6.08769 22.75 6.0816 22.75C6.07552 22.75 6.06948 22.75 6.06348 22.75C6.05748 22.75 6.05153 22.75 6.04562 22.75C6.03971 22.75 6.03384 22.75 6.02802 22.75C6.0222 22.75 6.01642 22.75 6.01068 22.75C6.00495 22.75 5.99926 22.75 5.99361 22.75C5.98796 22.75 5.98236 22.75 5.9768 22.75C5.97125 22.75 5.96573 22.75 5.96026 22.75C5.9548 22.75 5.94937 22.75 5.94399 22.75C5.93861 22.75 5.93328 22.75 5.92799 22.75C5.9227 22.75 5.91746 22.75 5.91226 22.75C5.90706 22.75 5.90191 22.75 5.8968 22.75C5.89169 22.75 5.88663 22.75 5.88161 22.75C5.8766 22.75 5.87163 22.75 5.8667 22.75C5.86178 22.75 5.8569 22.75 5.85207 22.75C5.84724 22.75 5.84245 22.75 5.83771 22.75C5.83297 22.75 5.82828 22.75 5.82363 22.75C5.81899 22.75 5.81439 22.75 5.80983 22.75C5.80528 22.75 5.80077 22.75 5.79632 22.75C5.79186 22.75 5.78745 22.75 5.78308 22.75C5.77872 22.75 5.7744 22.75 5.77013 22.75C5.76586 22.75 5.76164 22.75 5.75747 22.75C5.75329 22.75 5.74917 22.75 5.74509 22.75C5.74101 22.75 5.73698 22.75 5.733 22.75C5.72902 22.75 5.72508 22.75 5.7212 22.75C5.71731 22.75 5.71348 22.75 5.70969 22.75C5.7059 22.75 5.70216 22.75 5.69847 22.75C5.69478 22.75 5.69114 22.75 5.68754 22.75C5.68395 22.75 5.68041 22.75 5.67691 22.75C5.67342 22.75 5.66997 22.75 5.66658 22.75C5.66318 22.75 5.65984 22.75 5.65654 22.75C5.65324 22.75 5.65 22.75 5.6468 22.75C5.64361 22.75 5.64046 22.75 5.63736 22.75C5.63427 22.75 5.63122 22.75 5.62823 22.75C5.62523 22.75 5.62228 22.75 5.61939 22.75C5.6165 22.75 5.61365 22.75 5.61086 22.75C5.60807 22.75 5.60532 22.75 5.60263 22.75C5.59994 22.75 5.5973 22.75 5.59471 22.75C5.59212 22.75 5.58959 22.75 5.5871 22.75C5.58461 22.75 5.58218 22.75 5.5798 22.75C5.57741 22.75 5.57508 22.75 5.57281 22.75C5.57053 22.75 5.5683 22.75 5.56612 22.75C5.56395 22.75 5.56183 22.75 5.55976 22.75C5.55769 22.75 5.55567 22.75 5.5537 22.75C5.55174 22.75 5.54983 22.75 5.54797 22.75C5.54611 22.75 5.5443 22.75 5.54254 22.75C5.54079 22.75 5.53909 22.75 5.53744 22.75C5.53579 22.75 5.5342 22.75 5.53266 22.75C5.53112 22.75 5.52963 22.75 5.5282 22.75C5.52676 22.75 5.52538 22.75 5.52406 22.75C5.52273 22.75 5.52146 22.75 5.52024 22.75C5.51902 22.75 5.51786 22.75 5.51675 22.75C5.51564 22.75 5.51459 22.75 5.51359 22.75C5.51259 22.75 5.51164 22.75 5.51075 22.75C5.50986 22.75 5.50902 22.75 5.50824 22.75C5.50746 22.75 5.50673 22.75 5.50606 22.75C5.50539 22.75 5.50478 22.75 5.50422 22.75C5.50365 22.75 5.50315 22.75 5.5027 22.75C5.50225 22.75 5.50186 22.75 5.50152 22.75C5.50118 22.75 5.5009 22.75 5.50068 22.75C5.50045 22.75 5.50028 22.75 5.50017 22.75C5.50006 22.75 5.5 22.75 5.5 23.5ZM20.5 24.25C22.2952 24.25 23.75 22.7952 23.75 21H22.25C22.25 21.9668 21.4668 22.75 20.5 22.75V24.25ZM23.75 21V20.5H22.25V21H23.75ZM22 18.75H9V20.25H22V18.75ZM23.75 20.5C23.75 19.5335 22.9665 18.75 22 18.75V20.25C22.1381 20.25 22.25 20.3619 22.25 20.5H23.75ZM8.75 20.5C8.75 20.3619 8.86193 20.25 9 20.25V18.75C8.0335 18.75 7.25 19.5335 7.25 20.5H8.75Z"
            fill="#20B149" />
        <path
            d="M19.25 16.5C19.25 16.9142 19.5858 17.25 20 17.25C20.4142 17.25 20.75 16.9142 20.75 16.5H19.25ZM7 24.25C7.41421 24.25 7.75 23.9142 7.75 23.5C7.75 23.0858 7.41421 22.75 7 22.75V24.25ZM20.75 16.5V3.5H19.25V16.5H20.75ZM18 0.75H5V2.25H18V0.75ZM2.25 3.5V21H3.75V3.5H2.25ZM2.25 21C2.25 22.7952 3.70479 24.25 5.5 24.25V22.75C4.53321 22.75 3.75 21.9668 3.75 21H2.25ZM5.5 24.25H7V22.75H5.5V24.25ZM5 0.75C3.48122 0.75 2.25 1.98122 2.25 3.5H3.75C3.75 2.80964 4.30964 2.25 5 2.25V0.75ZM20.75 3.5C20.75 1.98122 19.5188 0.75 18 0.75V2.25C18.6904 2.25 19.25 2.80964 19.25 3.5H20.75Z"
            fill="#20B149" />
        <path d="M8 6.5H15" stroke="#20B149" stroke-width="1.5" stroke-miterlimit="10" stroke-linecap="round"
            stroke-linejoin="round" />
        <path d="M8 10.5H15" stroke="#20B149" stroke-width="1.5" stroke-miterlimit="10" stroke-linecap="round"
            stroke-linejoin="round" />
        <path d="M8 14.5H15" stroke="#20B149" stroke-width="1.5" stroke-miterlimit="10" stroke-linecap="round"
            stroke-linejoin="round" />
    </g>
</svg>
