<svg width="25" height="24" viewBox="0 0 25 24" fill="none" xmlns="http://www.w3.org/2000/svg">
    <path
        d="M19.0402 9.00003L9.38021 3.46003C8.8575 3.15819 8.26421 3.00006 7.66061 3.00172C7.057 3.00338 6.46459 3.16476 5.94354 3.46947C5.42249 3.77417 4.99137 4.21135 4.69396 4.7366C4.39655 5.26185 4.24345 5.85646 4.25021 6.46003V17.58C4.25021 18.4871 4.61053 19.357 5.25191 19.9983C5.89328 20.6397 6.76317 21 7.67021 21C8.27065 20.999 8.8603 20.8404 9.38021 20.54L19.0402 15C19.5593 14.6996 19.9902 14.268 20.2898 13.7485C20.5894 13.2289 20.7471 12.6397 20.7471 12.04C20.7471 11.4403 20.5894 10.8511 20.2898 10.3316C19.9902 9.81206 19.5593 9.38044 19.0402 9.08003V9.00003ZM18.0402 13.19L8.38021 18.81C8.1637 18.9327 7.91908 18.9972 7.67021 18.9972C7.42135 18.9972 7.17673 18.9327 6.96021 18.81C6.74431 18.6854 6.56503 18.5061 6.4404 18.2902C6.31576 18.0743 6.25017 17.8293 6.25021 17.58V6.42003C6.25017 6.17072 6.31576 5.9258 6.4404 5.70989C6.56503 5.49397 6.74431 5.31468 6.96021 5.19003C7.17762 5.06918 7.42151 5.00392 7.67021 5.00003C7.91875 5.00513 8.16235 5.07032 8.38021 5.19003L18.0402 10.77C18.2562 10.8946 18.4356 11.0739 18.5603 11.2898C18.685 11.5057 18.7506 11.7507 18.7506 12C18.7506 12.2494 18.685 12.4943 18.5603 12.7102C18.4356 12.9262 18.2562 13.1054 18.0402 13.23V13.19Z"
        fill="white" />
</svg>
