<svg width="16" height="16" viewBox="0 0 16 16" fill="none" xmlns="http://www.w3.org/2000/svg">
    <rect width="16" height="16" rx="8" fill="#05D13F" />
    <path
        d="M11.2971 5.19308L6.83043 9.52156L5.20288 7.94438C5.06902 7.81908 4.88972 7.74976 4.70362 7.75132C4.51752 7.75289 4.33949 7.82523 4.20789 7.95276C4.07629 8.08028 4.00164 8.2528 4.00003 8.43314C3.99841 8.61349 4.06995 8.78724 4.19925 8.91696L6.32861 10.9804C6.46171 11.1094 6.64222 11.1818 6.83043 11.1818C7.01864 11.1818 7.19914 11.1094 7.33225 10.9804L12.3008 6.16566C12.43 6.03594 12.5016 5.86219 12.5 5.68185C12.4984 5.5015 12.4237 5.32899 12.2921 5.20146C12.1605 5.07393 11.9825 5.00159 11.7964 5.00003C11.6103 4.99846 11.431 5.06779 11.2971 5.19308Z"
        fill="white" />
</svg>
